<?xml version="1.0" encoding="UTF-8"?><svg xmlns="http://www.w3.org/2000/svg" xmlns:xlink="http://www.w3.org/1999/xlink" height="1445.8" preserveAspectRatio="xMidYMid meet" version="1.0" viewBox="-0.0 -41.6 1318.7 1445.8" width="1318.7" zoomAndPan="magnify"><defs><linearGradient gradientUnits="userSpaceOnUse" id="a" x2="1358.64" xlink:actuate="onLoad" xlink:show="other" xlink:type="simple" xmlns:xlink="http://www.w3.org/1999/xlink" y1="659.65" y2="659.65"><stop offset=".47" stop-color="#a6cbf5"/><stop offset="1" stop-color="#c5e32e"/></linearGradient></defs><g data-name="Слой 2"><g data-name="Слой 1"><path d="M1318.63,659.76c0,20.92-1,41.85-3,62.68s-4.91,41.58-8.89,62.13-8.88,40.94-14.81,61c-1.4,5-3.07,10-4.63,15s-3.33,9.93-5,14.9-3.53,9.87-5.32,14.8-3.78,9.77-5.68,14.66a660.3,660.3,0,0,1-847.43,371.35,655.59,655.59,0,0,1-117.3-58.82c-2.34-1.43-4.62-3-6.92-4.46l-6.88-4.53c-4.59-3-9.06-6.22-13.59-9.32s-8.9-6.46-13.35-9.69-8.73-6.68-13.11-10-8.57-6.89-12.87-10.34-8.41-7.1-12.61-10.66l-12.34-11-12.07-11.3-11.79-11.6c-3.83-4-7.7-7.9-11.51-11.89s-7.49-8.1-11.19-12.2-7.31-8.28-10.89-12.48-7.12-8.45-10.6-12.74-6.93-8.62-10.28-13-6.7-8.8-9.93-13.28l-4.83-6.75c-1.61-2.25-3.25-4.48-4.78-6.78l-4.67-6.86c-1.56-2.29-3.13-4.57-4.61-6.91l-4.51-7c-1.5-2.32-3-4.65-4.43-7Q90.12,993.56,82.07,979A648.4,648.4,0,0,1,52.9,919.23a656.73,656.73,0,0,1-39.57-127q-6.6-32.67-10-65.9C1.16,704.18.05,682,0,659.76A668.31,668.31,0,0,1,13.27,527.31a648.42,648.42,0,0,1,16.54-64.56c1.57-5.33,3.42-10.57,5.15-15.85s3.67-10.48,5.53-15.72,4-10.37,6-15.55,4.21-10.27,6.34-15.39A657.08,657.08,0,0,1,116.93,284,659.53,659.53,0,0,1,306.48,101.81,653.79,653.79,0,0,1,549.86,8.87a661.66,661.66,0,0,1,721.49,405.66q11.73,29.19,20.62,59.38c5.93,20.09,10.81,40.48,14.8,61s6.89,41.31,8.89,62.13S1318.65,638.83,1318.63,659.76Zm0,0q-.08-31.39-3.16-62.67a623,623,0,0,0-9.39-62,616.33,616.33,0,0,0-37.27-119.5q-6.13-14.4-13-28.47t-14.47-27.75A616.71,616.71,0,0,0,801,48.31,621.67,621.67,0,0,0,124.28,429.88c-1.78,4.58-3.68,9.11-5.32,13.74s-3.45,9.2-5,13.86-3.25,9.27-4.67,14-3,9.34-4.33,14.07q-8.3,28.25-13.87,57.19A621.71,621.71,0,0,0,80,659.76q0,29.46,2.78,58.81t8.3,58.25a614.25,614.25,0,0,0,33.11,112.86A621.08,621.08,0,0,0,801,1271.38a614.58,614.58,0,0,0,118.47-31.83,617.63,617.63,0,0,0,161.1-90.85,620.59,620.59,0,0,0,127.84-135.44,608.5,608.5,0,0,0,33-53.1c5-9.12,9.89-18.37,14.46-27.74s8.92-18.88,13-28.48c2-4.82,4.12-9.6,6-14.48s3.88-9.7,5.61-14.62,3.62-9.8,5.22-14.78,3.37-9.89,4.84-14.9a610,610,0,0,0,15.6-60.72,623.62,623.62,0,0,0,9.39-62Q1318.56,691.19,1318.63,659.76Z" fill="url(#a)"/></g></g></svg>